<svg xmlns="http://www.w3.org/2000/svg" viewBox="0 0 64 64" fill="none">
  <rect width="64" height="64" rx="12" fill="#0a0a0a" />
  <path
    d="M43.2 19.3C40.8 17.8 37.8 17 34.3 17C26.6 17 21.9 21.2 21.9 27C21.9 32 25.6 35.2 32 36.9C36.8 38.2 38.7 39.4 38.7 41.8C38.7 44.5 36.3 46.3 32.4 46.3C28.4 46.3 24.7 44.8 22.1 42.5L18.8 46.7C22.1 49.8 27.1 51.8 32.3 51.8C40.9 51.8 45.5 47.3 45.5 41.4C45.5 35.7 41.9 32.8 34.7 30.9C30.2 29.7 28.5 28.5 28.5 26.1C28.5 23.8 30.6 22.3 34.1 22.3C37.1 22.3 39.9 23.2 42.2 24.9L43.2 19.3Z"
    fill="#00ff88"
  />
</svg>
